<?xml version="1.0" encoding="UTF-8"?>
<svg id="Layer_2" data-name="Layer 2" xmlns="http://www.w3.org/2000/svg" viewBox="0 0 636.42 676">
  <defs>
    <style>
      .cls-1 {
        fill: #b40000;
      }
    </style>
  </defs>
  <g id="Capa_1" data-name="Capa 1">
    <path class="cls-1" d="m635.2,295.26c-2.71-27.24-10.66-49.2-22.12-66.75,5.99-39.74,15.29-169.53-106.76-228.51,13.9,63.95-8.5,127.75-32.52,173.63-68.09,7.07-136.06,45.81-155.59,96.1-19.55-50.29-87.48-89.03-155.55-96.1C138.66,127.75,116.25,63.99,130.12,0,8.12,58.96,17.37,188.7,23.37,228.47c-11.47,17.53-19.42,39.51-22.15,66.77-24.1,240.09,316.97,380.76,316.97,380.76,0,0,341.08-140.67,317.01-380.74Z"/>
  </g>
</svg>